# xmcd
#
# Track frame offsets: 
#        150
#        10312
#        15292
#        25491
#        54726
#        81386
#        91710
#        106434
#        116296
#        118527
#
# Disc length: 1730 seconds
#
# Revision: 0
# Processed by: cddbd v1.4PL0 Copyright (c) Steve Scherf et al.
# Submitted via: ExactAudioCopy v0.90b4
#
DISCID=7006c00a
DTITLE=Jeff Foxworthy - You Might Be A Redneck
DYEAR=1900
DGENRE=Comedy
TTITLE0=Great Southern Words
TTITLE1=Cool Southern Accents
TTITLE2=The Redneck Test
TTITLE3=The Taxidermist Bill
TTITLE4=Towing Dad's Boat
TTITLE5=Raised In A Barn
TTITLE6=Sneaking Back Home
TTITLE7=The Birds And Bees
TTITLE8=30 T.V. Channels
TTITLE9=The Fertility Clinic
EXTD=
EXTT0=
EXTT1=
EXTT2=
EXTT3=
EXTT4=
EXTT5=
EXTT6=
EXTT7=
EXTT8=
EXTT9=
PLAYORDER=
